# xmcd
#
# Track frame offsets: 
#        150
#        14774
#        23473
#        36604
#        42492
#        53640
#        58308
#        70470
#        79483
#        89759
#        99762
#        110596
#        120856
#        130153
#        139776
#        148508
#
# Disc length: 2029 seconds
#
# Revision: 2
# Processed by: cddbd v1.5.2PL0 Copyright (c) Steve Scherf et al.
# Submitted via: ExactAudioCopy v1.0b3
#
DISCID=e807eb10
DTITLE=Lynn, Loretta - Coal Miner's Daughter
DYEAR=2004
DGENRE=Country
TTITLE0=Coal Miner's Daughter
TTITLE1=We've Come A Long Way Baby
TTITLE2=Let Your Love Flow
TTITLE3=I Fall To Pieces
TTITLE4=Hey Loretta!
TTITLE5=Back In Baby's Arms
TTITLE6=Me And Bobby McGee
TTITLE7=She's Got You
TTITLE8=Somebody Somewhere
TTITLE9=Crazy
TTITLE10=Spring Fever
TTITLE11=Your're Looking At Country
TTITLE12=Out Of My Head And Back In My Bed
TTITLE13=You Ain't Woman Enough
TTITLE14=They Don't Make 'Em Like My Daddy
TTITLE15=Walkin' After Midnight
EXTD=
EXTT0=
EXTT1=
EXTT2=
EXTT3=
EXTT4=
EXTT5=
EXTT6=
EXTT7=
EXTT8=
EXTT9=
EXTT10=
EXTT11=
EXTT12=
EXTT13=
EXTT14=
EXTT15=
PLAYORDER=
